<?xml version="1.0" encoding="UTF-8" standalone="no"?>
<!-- Created with Inkscape (http://www.inkscape.org/) -->

<svg
   width="57.402149mm"
   height="57.402149mm"
   viewBox="0 0 57.402149 57.402149"
   version="1.1"
   id="svg5"
   inkscape:version="1.2.2 (b0a8486541, 2022-12-01)"
   sodipodi:docname="logo.svg"
   xmlns:inkscape="http://www.inkscape.org/namespaces/inkscape"
   xmlns:sodipodi="http://sodipodi.sourceforge.net/DTD/sodipodi-0.dtd"
   xmlns="http://www.w3.org/2000/svg"
   xmlns:svg="http://www.w3.org/2000/svg">
  <sodipodi:namedview
     id="namedview7"
     pagecolor="#ffffff"
     bordercolor="#000000"
     borderopacity="0.25"
     inkscape:showpageshadow="2"
     inkscape:pageopacity="0.0"
     inkscape:pagecheckerboard="0"
     inkscape:deskcolor="#d1d1d1"
     inkscape:document-units="mm"
     showgrid="false"
     inkscape:zoom="3.659624"
     inkscape:cx="65.170629"
     inkscape:cy="111.76011"
     inkscape:window-width="2560"
     inkscape:window-height="1368"
     inkscape:window-x="0"
     inkscape:window-y="0"
     inkscape:window-maximized="1"
     inkscape:current-layer="layer1" />
  <defs
     id="defs2" />
  <g
     inkscape:label="Layer 1"
     inkscape:groupmode="layer"
     id="layer1"
     transform="translate(-38.505947,-18.083908)">
    <rect
       style="fill:#ea0a0d;fill-opacity:1;stroke:#ffffff;stroke-width:0;stroke-linejoin:round;stroke-dasharray:none"
       id="rect234"
       width="57.402149"
       height="57.402149"
       x="38.505947"
       y="18.083908"
       ry="0" />
    <g
       aria-label="
HC@"
       transform="scale(0.98008525,1.0203194)"
       id="text4850"
       style="font-size:21.7579px;font-family:'Noto Sans Bengali UI';-inkscape-font-specification:'Noto Sans Bengali UI';fill:#ffffff;stroke-width:0.158473;stroke-linejoin:round">
      <path
         d="m 54.218945,41.492663 h -1.958211 v -7.24538 h -7.963392 v 7.24538 h -1.958211 v -15.53514 h 1.958211 v 6.570885 h 7.963392 v -6.570885 h 1.958211 z"
         id="path10473" />
      <path
         d="m 65.119636,27.458818 q -2.502159,0 -3.93818,1.675358 -1.436022,1.675358 -1.436022,4.590917 0,2.893801 1.327232,4.590917 1.34899,1.675358 4.025212,1.675358 1.022621,0 1.936453,-0.174063 0.913832,-0.174063 1.784148,-0.435158 v 1.697116 q -0.870316,0.326369 -1.805906,0.478674 -0.913832,0.152305 -2.197548,0.152305 -2.371611,0 -3.959938,-0.979105 -1.588326,-0.979106 -2.393369,-2.785011 -0.783284,-1.805906 -0.783284,-4.242791 0,-2.349853 0.848558,-4.134001 0.870316,-1.805906 2.545674,-2.806769 1.675359,-1.022621 4.068728,-1.022621 2.458642,0 4.286306,0.913831 l -0.783284,1.653601 q -0.718011,-0.326369 -1.610085,-0.587463 -0.870316,-0.261095 -1.914695,-0.261095 z"
         id="path10470" />
      <path
         d="m 88.400588,33.725093 q 0,1.000863 -0.239337,1.958211 -0.217579,0.957348 -0.696253,1.740632 -0.478674,0.761527 -1.174926,1.2402 -0.696253,0.456916 -1.653601,0.456916 -1.000863,0 -1.588327,-0.565705 -0.565705,-0.587463 -0.696252,-1.327232 h -0.10879 q -0.391642,0.805042 -1.153169,1.34899 -0.761526,0.543947 -1.914695,0.543947 -1.6536,0 -2.567432,-1.109653 -0.892074,-1.109653 -0.892074,-2.937316 0,-1.436022 0.565705,-2.523917 0.565706,-1.109653 1.588327,-1.740632 1.044379,-0.630979 2.458643,-0.630979 0.957348,0 1.871179,0.174063 0.93559,0.152306 1.45778,0.348127 l -0.217579,4.416854 q -0.02176,0.391642 -0.02176,0.565705 0,0.152305 0,0.217579 0,1.131411 0.391642,1.501295 0.4134,0.369884 0.957348,0.369884 0.674495,0 1.13141,-0.543947 0.478674,-0.565705 0.718011,-1.479537 0.261095,-0.93559 0.261095,-2.045243 0,-2.023485 -0.8268,-3.41599 -0.805043,-1.414264 -2.241064,-2.154032 -1.414264,-0.739769 -3.220169,-0.739769 -2.480401,0 -4.199275,1.022621 -1.697116,1.022622 -2.58919,2.828527 -0.870316,1.784148 -0.870316,4.090486 0,3.220169 1.697116,4.939043 1.697116,1.718874 4.895528,1.718874 1.327232,0 2.523916,-0.304611 1.218442,-0.282852 2.154032,-0.630979 v 1.479538 q -0.93559,0.391642 -2.110516,0.630979 -1.153169,0.261095 -2.567432,0.261095 -2.567433,0 -4.395096,-0.957348 -1.827664,-0.957348 -2.806769,-2.741496 -0.957348,-1.805905 -0.957348,-4.329822 0,-2.023484 0.630979,-3.742359 0.630979,-1.740632 1.827664,-3.00259 1.196684,-1.283716 2.893801,-1.979969 1.718874,-0.71801 3.872906,-0.71801 2.262821,0 4.025211,0.935589 1.76239,0.93559 2.763254,2.676222 1.022621,1.740632 1.022621,4.155759 z m -10.98774,1.392506 q 0,1.392505 0.543948,2.023484 0.565705,0.630979 1.501295,0.630979 1.218442,0 1.740632,-0.913831 0.543947,-0.913832 0.630979,-2.371611 l 0.130547,-2.719738 q -0.282852,-0.08703 -0.71801,-0.152305 -0.435158,-0.06527 -0.892074,-0.06527 -1.066137,0 -1.718874,0.52219 -0.652737,0.522189 -0.93559,1.348989 -0.282853,0.805043 -0.282853,1.697117 z"
         id="path10467" />
    </g>
    <g
       aria-label="NFHS"
       transform="scale(0.98008525,1.0203194)"
       id="text4850-3"
       style="font-size:21.7579px;font-family:'Noto Sans Bengali UI';-inkscape-font-specification:'Noto Sans Bengali UI';fill:#ffffff;stroke-width:0.158473;stroke-linejoin:round">
      <path
         d="m 54.654103,65.749016 h -2.28458 L 44.058005,52.846581 h -0.08703 q 0.04351,0.761526 0.108789,1.892937 0.06527,1.131411 0.06527,2.328096 v 8.681402 H 42.339131 V 50.213875 h 2.262822 l 8.28976,12.858919 h 0.08703 q -0.02176,-0.348126 -0.06527,-1.044379 -0.02176,-0.696253 -0.06527,-1.523053 -0.02176,-0.8268 -0.02176,-1.523053 v -8.768434 h 1.827664 z"
         id="path10464" />
      <path
         d="M 60.833351,65.749016 H 58.87514 V 50.213875 h 8.681402 v 1.718874 h -6.723191 v 5.504749 h 6.309791 v 1.718874 h -6.309791 z"
         id="path10461" />
      <path
         d="m 82.047283,65.749016 h -1.958211 v -7.245381 h -7.963391 v 7.245381 H 70.16747 V 50.213875 h 1.958211 v 6.570886 h 7.963391 v -6.570886 h 1.958211 z"
         id="path10458" />
      <path
         d="m 95.102008,61.593257 q 0,2.067 -1.501295,3.220169 -1.501295,1.153169 -4.046969,1.153169 -1.305474,0 -2.415127,-0.195821 -1.109653,-0.195821 -1.849422,-0.543948 v -1.871179 q 0.783285,0.348126 1.936454,0.630979 1.174926,0.282853 2.415127,0.282853 1.740632,0 2.610948,-0.674495 0.892073,-0.674495 0.892073,-1.827664 0,-0.761526 -0.326368,-1.283716 -0.326369,-0.52219 -1.131411,-0.957348 -0.783284,-0.456916 -2.197548,-0.957347 -1.979969,-0.718011 -3.00259,-1.76239 -1.000863,-1.044379 -1.000863,-2.850285 0,-1.2402 0.630979,-2.110516 0.630979,-0.892074 1.740632,-1.370748 1.13141,-0.478674 2.58919,-0.478674 1.283716,0 2.349853,0.239337 1.066137,0.239337 1.936453,0.630979 l -0.609221,1.675358 q -0.805042,-0.348126 -1.76239,-0.587463 -0.93559,-0.239337 -1.958211,-0.239337 -1.457779,0 -2.197548,0.630979 -0.739769,0.609221 -0.739769,1.631843 0,0.783284 0.326369,1.305474 0.326368,0.522189 1.066137,0.93559 0.739769,0.4134 2.001727,0.892073 1.370748,0.500432 2.306337,1.087895 0.957348,0.565706 1.436022,1.370748 0.500431,0.805042 0.500431,2.023485 z"
         id="path10455" />
    </g>
  </g>
</svg>
